<?xml version="1.0" encoding="UTF-8"?>
<svg width="65px" height="251px" viewBox="0 0 65 251" version="1.1" xmlns="http://www.w3.org/2000/svg" xmlns:xlink="http://www.w3.org/1999/xlink">
    <title>Fill 73 Copy 3</title>
    <g id="Final-Home-Page" stroke="none" stroke-width="1" fill="none" fill-rule="evenodd">
        <path d="M62.8345,215.0499 C62.8345,232.8639 49.5875,247.6439 32.4265,250.0549 L32.4265,234.2739 C32.7865,216.7879 45.9075,202.3799 62.8345,200.0069 L62.8345,215.0499 Z M0.0285,215.0499 L0.0285,200.0059 C17.1935,202.4129 30.4455,217.1949 30.4455,235.0129 L30.4455,250.0559 C13.2795,247.6489 0.0285,232.8669 0.0285,215.0499 L0.0285,215.0499 Z M0.0375,0.6389 C17.2025,3.0459 30.4535,17.8279 30.4535,35.6459 L30.4535,50.6889 C13.2885,48.2809 0.0375,33.4999 0.0375,15.6829 L0.0375,0.6389 Z M62.8435,0.6389 L62.8435,15.6829 C62.8435,33.4999 49.5915,48.2799 32.4265,50.6889 L32.4265,35.6459 C32.4265,17.8279 45.6785,3.0459 62.8435,0.6389 L62.8435,0.6389 Z M32.4265,85.4859 C32.4265,67.6679 45.6785,52.8879 62.8435,50.4799 L62.8435,65.5229 C62.8435,83.3399 49.5915,98.1209 32.4265,100.5289 L32.4265,85.4859 Z M33.8845,134.5899 C34.2445,117.1039 47.3655,102.6959 64.2925,100.3229 L64.2925,115.3659 C64.2925,133.1809 51.0455,147.9599 33.8845,150.3709 L33.8845,134.5899 Z M32.4265,184.4329 C32.7865,166.9459 45.9075,152.5389 62.8345,150.1659 L62.8345,165.2089 C62.8345,183.0239 49.5875,197.8029 32.4265,200.2139 L32.4265,184.4329 Z M30.4455,185.1719 L30.4455,200.2149 C13.2795,197.8079 0.0285,183.0269 0.0285,165.2089 L0.0285,150.1659 C17.1935,152.5729 30.4455,167.3549 30.4455,185.1719 L30.4455,185.1719 Z M30.4455,135.3279 L30.4455,150.3719 C13.2795,147.9649 0.0285,133.1839 0.0285,115.3659 L0.0285,100.3219 C17.1935,102.7299 30.4455,117.5109 30.4455,135.3279 L30.4455,135.3279 Z M30.4535,85.4859 L30.4535,100.5289 C13.2885,98.1219 0.0375,83.3399 0.0375,65.5229 L0.0375,50.4799 C17.2025,52.8879 30.4535,67.6679 30.4535,85.4859 L30.4535,85.4859 Z" id="Fill-73-Copy-3" fill="#F1F1F1"></path>
    </g>
</svg>